<svg width="18" height="18" viewBox="0 0 18 18" fill="none" xmlns="http://www.w3.org/2000/svg">
<path fill-rule="evenodd" clip-rule="evenodd" d="M0.375 2.25C0.375 1.83579 0.710786 1.5 1.125 1.5H2.4375C2.78165 1.5 3.08164 1.73422 3.16511 2.0681L3.58558 3.75H16.5C16.731 3.75 16.949 3.8564 17.0912 4.03844C17.2333 4.22048 17.2836 4.45785 17.2276 4.6819L15.3526 12.1819C15.2691 12.5158 14.9692 12.75 14.625 12.75H4.875C4.53085 12.75 4.23086 12.5158 4.14739 12.1819L1.85192 3H1.125C0.710786 3 0.375 2.66421 0.375 2.25ZM3.96058 5.25L5.46058 11.25H14.0394L15.5394 5.25H3.96058Z" fill="white"/>
<path fill-rule="evenodd" clip-rule="evenodd" d="M4.875 12.75C5.91053 12.75 6.75 13.5895 6.75 14.625C6.75 15.6605 5.91053 16.5 4.875 16.5C3.83947 16.5 3 15.6605 3 14.625C3 13.5895 3.83947 12.75 4.875 12.75ZM4.875 14.25C4.66789 14.25 4.5 14.4179 4.5 14.625C4.5 14.8321 4.66789 15 4.875 15C5.08211 15 5.25 14.8321 5.25 14.625C5.25 14.4179 5.08211 14.25 4.875 14.25Z" fill="white"/>
<path fill-rule="evenodd" clip-rule="evenodd" d="M14.625 12.75C15.6605 12.75 16.5 13.5895 16.5 14.625C16.5 15.6605 15.6605 16.5 14.625 16.5C13.5895 16.5 12.75 15.6605 12.75 14.625C12.75 13.5895 13.5895 12.75 14.625 12.75ZM14.25 14.625C14.25 14.4179 14.4179 14.25 14.625 14.25C14.8321 14.25 15 14.4179 15 14.625C15 14.8321 14.8321 15 14.625 15C14.4179 15 14.25 14.8321 14.25 14.625Z" fill="white"/>
</svg>
