<svg width="20" height="20" viewBox="0 0 20 20" fill="none" xmlns="http://www.w3.org/2000/svg">
<path fill-rule="evenodd" clip-rule="evenodd" d="M0.416626 2.50002C0.416626 2.03978 0.789722 1.66669 1.24996 1.66669H2.70829C3.09068 1.66669 3.424 1.92693 3.51675 2.29791L3.98394 4.16669H18.3333C18.5899 4.16669 18.8322 4.28491 18.9901 4.48718C19.1481 4.68944 19.204 4.95318 19.1417 5.20213L17.0584 13.5355C16.9657 13.9064 16.6324 14.1667 16.25 14.1667H5.41663C5.03424 14.1667 4.70092 13.9064 4.60817 13.5355L2.05765 3.33335H1.24996C0.789722 3.33335 0.416626 2.96026 0.416626 2.50002ZM4.40061 5.83335L6.06727 12.5H15.5993L17.266 5.83335H4.40061Z" fill="#C93E33"/>
<path fill-rule="evenodd" clip-rule="evenodd" d="M5.41663 14.1667C6.56722 14.1667 7.49996 15.0994 7.49996 16.25C7.49996 17.4006 6.56722 18.3334 5.41663 18.3334C4.26603 18.3334 3.33329 17.4006 3.33329 16.25C3.33329 15.0994 4.26603 14.1667 5.41663 14.1667ZM5.41663 15.8334C5.18651 15.8334 4.99996 16.0199 4.99996 16.25C4.99996 16.4801 5.18651 16.6667 5.41663 16.6667C5.64675 16.6667 5.83329 16.4801 5.83329 16.25C5.83329 16.0199 5.64675 15.8334 5.41663 15.8334Z" fill="#C93E33"/>
<path fill-rule="evenodd" clip-rule="evenodd" d="M16.25 14.1667C17.4006 14.1667 18.3333 15.0994 18.3333 16.25C18.3333 17.4006 17.4006 18.3334 16.25 18.3334C15.0994 18.3334 14.1666 17.4006 14.1666 16.25C14.1666 15.0994 15.0994 14.1667 16.25 14.1667ZM15.8333 16.25C15.8333 16.0199 16.0198 15.8334 16.25 15.8334C16.4801 15.8334 16.6666 16.0199 16.6666 16.25C16.6666 16.4801 16.4801 16.6667 16.25 16.6667C16.0198 16.6667 15.8333 16.4801 15.8333 16.25Z" fill="#C93E33"/>
</svg>
