<svg width="16" height="16" viewBox="0 0 16 16" fill="none" xmlns="http://www.w3.org/2000/svg">
<path fill-rule="evenodd" clip-rule="evenodd" d="M0.333374 2.00001C0.333374 1.63182 0.631851 1.33334 1.00004 1.33334H2.16671C2.47262 1.33334 2.73927 1.54154 2.81347 1.83832L3.18723 3.33334H14.6667C14.872 3.33334 15.0658 3.42792 15.1922 3.58974C15.3185 3.75155 15.3633 3.96254 15.3135 4.1617L13.6468 10.8284C13.5726 11.1251 13.306 11.3333 13 11.3333H4.33337C4.02746 11.3333 3.76081 11.1251 3.68661 10.8284L1.64619 2.66668H1.00004C0.631851 2.66668 0.333374 2.3682 0.333374 2.00001ZM4.33337 11.3333C3.4129 11.3333 2.66671 12.0795 2.66671 13C2.66671 13.9205 3.4129 14.6667 4.33337 14.6667C5.25385 14.6667 6.00004 13.9205 6.00004 13C6.00004 12.0795 5.25385 11.3333 4.33337 11.3333ZM13 11.3333C12.0796 11.3333 11.3334 12.0795 11.3334 13C11.3334 13.9205 12.0796 14.6667 13 14.6667C13.9205 14.6667 14.6667 13.9205 14.6667 13C14.6667 12.0795 13.9205 11.3333 13 11.3333ZM3.52056 4.66668L4.85389 10H12.4795L13.8129 4.66668H3.52056ZM8.66671 5.33334C9.0349 5.33334 9.33337 5.63182 9.33337 6.00001V6.66668H10C10.3682 6.66668 10.6667 6.96515 10.6667 7.33334C10.6667 7.70153 10.3682 8.00001 10 8.00001H9.33337V8.66668C9.33337 9.03487 9.0349 9.33334 8.66671 9.33334C8.29852 9.33334 8.00004 9.03487 8.00004 8.66668V8.00001H7.33337C6.96518 8.00001 6.66671 7.70153 6.66671 7.33334C6.66671 6.96515 6.96518 6.66668 7.33337 6.66668H8.00004V6.00001C8.00004 5.63182 8.29852 5.33334 8.66671 5.33334ZM4.33337 12.6667C4.14928 12.6667 4.00004 12.8159 4.00004 13C4.00004 13.1841 4.14928 13.3333 4.33337 13.3333C4.51747 13.3333 4.66671 13.1841 4.66671 13C4.66671 12.8159 4.51747 12.6667 4.33337 12.6667ZM13 12.6667C12.8159 12.6667 12.6667 12.8159 12.6667 13C12.6667 13.1841 12.8159 13.3333 13 13.3333C13.1841 13.3333 13.3334 13.1841 13.3334 13C13.3334 12.8159 13.1841 12.6667 13 12.6667Z" fill="white"/>
</svg>
