<svg width="18" height="18" viewBox="0 0 18 18" fill="none" xmlns="http://www.w3.org/2000/svg">
<path fill-rule="evenodd" clip-rule="evenodd" d="M0.666626 2.33335C0.666626 1.41288 1.41282 0.666687 2.33329 0.666687H6.49996C7.42043 0.666687 8.16663 1.41288 8.16663 2.33335V6.50002C8.16663 7.4205 7.42043 8.16669 6.49996 8.16669H2.33329C1.41282 8.16669 0.666626 7.4205 0.666626 6.50002V2.33335ZM6.49996 2.33335H2.33329V6.50002H6.49996V2.33335ZM9.83329 2.33335C9.83329 1.41288 10.5795 0.666687 11.5 0.666687H15.6666C16.5871 0.666687 17.3333 1.41288 17.3333 2.33335V6.50002C17.3333 7.4205 16.5871 8.16669 15.6666 8.16669H11.5C10.5795 8.16669 9.83329 7.4205 9.83329 6.50002V2.33335ZM15.6666 2.33335H11.5V6.50002H15.6666V2.33335ZM0.666626 11.5C0.666626 10.5795 1.41282 9.83335 2.33329 9.83335H6.49996C7.42043 9.83335 8.16663 10.5795 8.16663 11.5V15.6667C8.16663 16.5872 7.42043 17.3334 6.49996 17.3334H2.33329C1.41282 17.3334 0.666626 16.5872 0.666626 15.6667V11.5ZM6.49996 11.5H2.33329V15.6667H6.49996V11.5ZM9.83329 11.5C9.83329 10.5795 10.5795 9.83335 11.5 9.83335H15.6666C16.5871 9.83335 17.3333 10.5795 17.3333 11.5V15.6667C17.3333 16.5872 16.5871 17.3334 15.6666 17.3334H11.5C10.5795 17.3334 9.83329 16.5872 9.83329 15.6667V11.5ZM15.6666 11.5H11.5V15.6667H15.6666V11.5Z" fill="white"/>
</svg>
