<svg width="17" height="17" viewBox="0 0 17 17" fill="none" xmlns="http://www.w3.org/2000/svg">
<g opacity="0.5">
<path fill-rule="evenodd" clip-rule="evenodd" d="M1.41669 2.83335C1.41669 2.05095 2.05095 1.41669 2.83335 1.41669H6.37502C7.15742 1.41669 7.79169 2.05095 7.79169 2.83335V6.37502C7.79169 7.15742 7.15742 7.79169 6.37502 7.79169H2.83335C2.05095 7.79169 1.41669 7.15742 1.41669 6.37502V2.83335ZM6.37502 2.83335H2.83335V6.37502H6.37502V2.83335ZM9.20836 2.83335C9.20836 2.05095 9.84262 1.41669 10.625 1.41669H14.1667C14.9491 1.41669 15.5834 2.05095 15.5834 2.83335V6.37502C15.5834 7.15742 14.9491 7.79169 14.1667 7.79169H10.625C9.84262 7.79169 9.20836 7.15742 9.20836 6.37502V2.83335ZM14.1667 2.83335H10.625V6.37502H14.1667V2.83335ZM1.41669 10.625C1.41669 9.84262 2.05095 9.20835 2.83335 9.20835H6.37502C7.15742 9.20835 7.79169 9.84262 7.79169 10.625V14.1667C7.79169 14.9491 7.15742 15.5834 6.37502 15.5834H2.83335C2.05095 15.5834 1.41669 14.9491 1.41669 14.1667V10.625ZM6.37502 10.625H2.83335V14.1667H6.37502V10.625ZM9.20836 10.625C9.20836 9.84262 9.84262 9.20835 10.625 9.20835H14.1667C14.9491 9.20835 15.5834 9.84262 15.5834 10.625V14.1667C15.5834 14.9491 14.9491 15.5834 14.1667 15.5834H10.625C9.84262 15.5834 9.20836 14.9491 9.20836 14.1667V10.625ZM14.1667 10.625H10.625V14.1667H14.1667V10.625Z" fill="#C93E33"/>
</g>
</svg>
