<svg width="17" height="17" viewBox="0 0 17 17" fill="none" xmlns="http://www.w3.org/2000/svg">
<g opacity="0.5">
<path fill-rule="evenodd" clip-rule="evenodd" d="M9.73956 1.41666C10.1308 1.41666 10.4479 1.7338 10.4479 2.125V4.95833C10.4479 5.34953 10.1308 5.66666 9.73956 5.66666C9.34836 5.66666 9.03123 5.34953 9.03123 4.95833V4.25H1.9479C1.55669 4.25 1.23956 3.93287 1.23956 3.54166C1.23956 3.15046 1.55669 2.83333 1.9479 2.83333H9.03123V2.125C9.03123 1.7338 9.34836 1.41666 9.73956 1.41666ZM11.8646 3.54166C11.8646 3.15046 12.1817 2.83333 12.5729 2.83333H14.6979C15.0891 2.83333 15.4062 3.15046 15.4062 3.54166C15.4062 3.93287 15.0891 4.25 14.6979 4.25H12.5729C12.1817 4.25 11.8646 3.93287 11.8646 3.54166ZM7.61456 6.375C8.00577 6.375 8.3229 6.69213 8.3229 7.08333V7.79166H15.4062C15.7974 7.79166 16.1146 8.1088 16.1146 8.5C16.1146 8.8912 15.7974 9.20833 15.4062 9.20833H8.3229V9.91666C8.3229 10.3079 8.00577 10.625 7.61456 10.625C7.22336 10.625 6.90623 10.3079 6.90623 9.91666V7.08333C6.90623 6.69213 7.22336 6.375 7.61456 6.375ZM1.23956 8.5C1.23956 8.1088 1.55669 7.79166 1.9479 7.79166H4.78123C5.17243 7.79166 5.48956 8.1088 5.48956 8.5C5.48956 8.8912 5.17243 9.20833 4.78123 9.20833H1.9479C1.55669 9.20833 1.23956 8.8912 1.23956 8.5ZM9.73956 11.3333C10.1308 11.3333 10.4479 11.6505 10.4479 12.0417V14.875C10.4479 15.2662 10.1308 15.5833 9.73956 15.5833C9.34836 15.5833 9.03123 15.2662 9.03123 14.875V14.1667H1.9479C1.55669 14.1667 1.23956 13.8495 1.23956 13.4583C1.23956 13.0671 1.55669 12.75 1.9479 12.75H9.03123V12.0417C9.03123 11.6505 9.34836 11.3333 9.73956 11.3333ZM11.8646 13.4583C11.8646 13.0671 12.1817 12.75 12.5729 12.75H14.6979C15.0891 12.75 15.4062 13.0671 15.4062 13.4583C15.4062 13.8495 15.0891 14.1667 14.6979 14.1667H12.5729C12.1817 14.1667 11.8646 13.8495 11.8646 13.4583Z" fill="#C93E33"/>
</g>
</svg>
