<svg width="12" height="12" viewBox="0 0 12 12" fill="none" xmlns="http://www.w3.org/2000/svg">
<path d="M2 4.99998C1.44772 4.99998 1 5.44768 1 5.99998C1 6.55228 1.44772 6.99998 2 6.99998C2.55228 6.99998 3 6.55228 3 5.99998C3 5.44768 2.55228 4.99998 2 4.99998Z" fill="#C93E33"/>
<path d="M1 9.49998C1 8.94768 1.44772 8.49998 2 8.49998C2.55228 8.49998 3 8.94768 3 9.49998C3 10.0523 2.55228 10.5 2 10.5C1.44772 10.5 1 10.0523 1 9.49998Z" fill="#C93E33"/>
<path d="M5 5.49998C4.72386 5.49998 4.5 5.72384 4.5 5.99998C4.5 6.27612 4.72386 6.49998 5 6.49998H11C11.2761 6.49998 11.5 6.27612 11.5 5.99998C11.5 5.72384 11.2761 5.49998 11 5.49998H5Z" fill="#C93E33"/>
<path d="M4.5 9.49998C4.5 9.22384 4.72386 8.99998 5 8.99998H11C11.2761 8.99998 11.5 9.22384 11.5 9.49998C11.5 9.77612 11.2761 9.99998 11 9.99998H5C4.72386 9.99998 4.5 9.77612 4.5 9.49998Z" fill="#C93E33"/>
<path d="M5 1.99998C4.72386 1.99998 4.5 2.22384 4.5 2.49998C4.5 2.77612 4.72386 2.99998 5 2.99998H11C11.2761 2.99998 11.5 2.77612 11.5 2.49998C11.5 2.22384 11.2761 1.99998 11 1.99998H5Z" fill="#C93E33"/>
<path d="M2 1.57141C1.44772 1.57141 1 2.01911 1 2.57141C1 3.12371 1.44772 3.57141 2 3.57141C2.55228 3.57141 3 3.12371 3 2.57141C3 2.01911 2.55228 1.57141 2 1.57141Z" fill="#C93E33"/>
</svg>
